<?xml version="1.0" encoding="UTF-8"?>
<svg id="Capa_2" data-name="Capa 2" xmlns="http://www.w3.org/2000/svg" viewBox="0 0 704 906.21">
  <defs>
    <style>
      .cls-1 {
        fill: #093d65;
      }

      .cls-2 {
        fill: #28a2b9;
      }
    </style>
  </defs>
  <g id="Capa_1-2" data-name="Capa 1">
    <g>
      <path class="cls-2" d="M118.15,644.83c-19.05,17.54-40.48,30.27-64.39,38.82-5.85,2.09-10.74-1.09-12.31-6.09-1.81-5.77,1.21-10.01,7.09-12.45,42.91-17.79,78.13-39.78,90.05-88.21,10.26-41.68,4.63-93.05,14.02-137.66,6.77-32.13,19.9-62.2,40.57-87.44,39.74-48.54,97.3-76.96,160.16-79.06,39.57-1.32,78.5,9.34,112.5,29.09,4.5,2.62,4.19,9.68,2.21,12.82-2.69,4.26-8.38,4.95-13.21,2.17-50.92-29.3-111.66-33.82-166.7-12.31-44.65,17.45-82.12,51.01-103.38,94.17-9.07,18.42-14.12,37.59-17.31,57.77-11.07,70.14,8.68,134.99-49.32,188.39Z"/>
      <path class="cls-2" d="M700.14,566.02c-8.36,2.49-14.66-1.01-21.68-3.83-34.12-13.73-61.71-36.68-80.09-68.66-9.9-17.23-18.25-34.44-25.74-52.96l-22.43-55.45c-11.17-27.61-27.29-52.09-48.47-73.11-13.79-13.69-29.63-23.56-45.77-33.95-4.67-3.01-8.17-6.94-7.09-12.07.84-4.02,5.72-11.11,11-8.31,23.39,12.39,43.09,29.33,61.46,48.3,21.57,22.29,36.94,48.25,48.43,76.99l26.11,65.26c20.33,50.82,50.72,86.14,103.91,102.34,5.03,3.89,4.57,11.14.37,15.44Z"/>
      <path class="cls-2" d="M362.6,334.73c-74.96,3.62-134.65,50.99-150.43,124.4-1.15,5.35-8.57,5.21-12.24,3.56-4.7-2.11-5.71-6.96-4.38-12.69,7.87-33.92,26.34-64.06,52.12-87.5,63.25-57.49,159.63-61.94,228.27-10.9,3.41,2.53,3.27,9.82,1.11,12.65-3,3.92-8.65,3.7-13,.8-30.16-20.08-64.26-32.12-101.44-30.33Z"/>
      <path class="cls-2" d="M383.88,890.92l13.09-17.66c44.65-56.06,81.7-117.01,109.12-183.4,9.06-21.94,15.66-43.79,20.97-66.59,1.22-5.25,5.45-8.31,9.99-7.47,4.08.76,8.05,5.15,7.26,10.58-3.77,25.62-11.35,50.22-21.85,74.29-31.64,72.5-73.35,139.97-122.78,201.39-3.73,4.64-9.67,5.16-13.64,2.65-4.31-2.72-5.61-9.12-2.15-13.79Z"/>
      <path class="cls-2" d="M282.06,891.04c-11.66,9.47-22.4-4.15-12.14-14.28,27.92-29.65,55.77-59.28,80.39-91.84,18.57-23.85,34.93-49.14,50.38-75.05,1.49-2.45,2.92-4.56,5.09-6.17,2.92-2.25,7.38-3.29,11.42-4.5,2.2-.6,4.87-1.4,6.96-.47,1.72.71,1.7,3.49.78,5.64-37.32,69-86.51,131.49-142.72,186.55l-.15.12Z"/>
      <path class="cls-2" d="M162.54,837.43c-5.98,2.8-11.7-1.02-12.95-5.04-1.86-5.97.26-9.83,6.24-12.41,58.3-25.17,106.95-66.52,142.34-119.14,3.1-4.6,7.68-6.19,12.44-4.25,3.45,1.41,7.06,8.14,4.34,12.71-32.86,55.31-94.05,100.75-152.41,128.13Z"/>
      <path class="cls-2" d="M196.64,596.83c.31,1.19.37,2.42.12,3.62-11.85,57.57-71.08,113.33-127.1,125.45-4.48.97-8.65-1.55-10.29-5.13-1.49-3.25-1.3-9.79,3.44-11.21,56.62-16.88,102.89-56.83,117.47-115.16,0-.06.02-.11.02-.17,1.2-8.02,12.43-8.96,15.15-1.32.46,1.28.85,2.59,1.19,3.91Z"/>
      <path class="cls-2" d="M338.95,902.43c-8.54,7.31-19.52-.89-13.04-10.93,30.82-36.37,69.79-86.06,98.46-128.81,7.42-11.06,21.55-4.14,13,10.23-9,15.14-89.1,119.15-98.29,129.4l-.12.1Z"/>
      <path class="cls-2" d="M673.36,485.57c14.7,16.09,35.71,21.01,29.54,33.06-2.19,4.28-8.22,5.69-13.24,2.82-35.69-20.4-65.86-69.26-80.24-107.56-1.99-5.3,1.33-11.66,4.92-12.89,5.77-1.97,10.03.64,12.15,6.06,11.22,28.71,26.03,55.69,46.87,78.51Z"/>
      <path class="cls-2" d="M172.62,716.32c-4.05,3.45-11.05.71-13-2.17-2.12-3.14-3.45-9.42.41-12.65,20.36-17.05,36.86-38.15,48.45-62.04,2.39-4.93,8.67-5.65,12.11-3.89,4.5,2.31,7.42,7.86,4.74,13.32-12.57,25.67-30.62,48.59-52.71,67.43Z"/>
      <path class="cls-2" d="M92.94,766.17c-5.32,2.89-9.99-1.18-11.54-5.02-2.1-5.23.18-9.37,5.27-12.23l38.33-21.6c4.65-2.62,9.71.18,12.17,4.09,1.92,3.05,1.95,9.7-2.63,12.18l-41.6,22.59Z"/>
      <path class="cls-2" d="M114.04,557.61c-10.63,42.21-33.65,67.27-73.74,83.4-5.7,2.29-11.03-.92-12.51-5.98-1.69-5.8,1.6-9.53,6.96-11.87,13.44-5.87,25.94-13.57,36.81-23.48,26.49-24.16,30.52-71.08,31.74-106.72.85-24.74,3-47.95,8.23-72.39,10.39-48.61,36.39-91.83,71.84-126.31,40.29-39.19,92.08-62.31,148.46-64.52,25.1-.98,49.8.58,74.11,6.73,6.43,1.63,8.88,5.86,8.15,11.89-.76,6.32-6.63,8.42-13.24,6.56-127.5-35.94-252.45,55.69-274.32,183.11-7.21,42.02-3.72,84.71-12.5,119.59Z"/>
      <path class="cls-2" d="M33.79,465.13c10.78,6.54,15.95,17.59,13.2,27.94-2.95,11.1-13.24,18.58-24.3,18-11.64-.61-20.82-8.81-22.44-20-1.68-11.62,4.88-21.67,15.98-26.77,7.18-74.16,33.58-147.51,80.17-205.31s109.4-97.97,180.95-115.68c6.66-1.65,12.29-4.05,19.09-4.11,4.43-.04,7.05,4.08,8.13,7.63.91,3,.12,10.33-4.59,11.21-34.46,6.42-66.49,18.78-97.41,35.51C100.59,248.75,46.21,351.72,33.79,465.13ZM21.37,479.52c-5.04,2.15-6.97,7-4.81,11.47,1.49,3.08,6.05,5.78,10.56,3.87,3.04-1.29,6.07-6.18,4.17-10.3-1.51-3.28-5.46-6.95-9.92-5.04Z"/>
      <path class="cls-2" d="M698.87,449.38c2.71,4.88,1.44,9.98-2.08,13.01-3.14,2.7-9.86,2.85-12.73-1.35-17.32-25.24-30.58-51.75-42.6-79.9-8.9-20.85-17.02-41.06-27.55-61.1-21.26-40.44-52.42-73.71-88.93-100.69-51.93-38.37-112.66-60.43-177.2-63.15-6.38-.27-11.05-3.41-10.97-8.91.09-5.96,3.3-10.11,9.99-9.92,54.29,1.53,106.47,17.3,153.54,44.4,41.92,24.13,79,55.49,107.39,94.78,17.42,24.11,30.8,50.04,42.11,77.47,9.24,22.42,19,43.15,31.55,63.84l17.49,31.51Z"/>
      <path class="cls-2" d="M588.35,366.76c-39.87-93.82-128.17-156.72-230.01-163.74-41.12-2.84-81.88,6.77-119.26,23.75-4.68,2.12-10.54-.06-12.83-3.26-2.01-2.81-1.95-10.36,2.58-12.66,102.17-51.76,222.14-25,306.31,49.32,30.26,26.72,52.67,60.13,69.07,96.85,2.36,5.28,3.47,10.26-1.65,13.77-3.65,2.5-11.68,1.93-14.21-4.03Z"/>
      <path class="cls-2" d="M176.66,156.52c-32.34,18.36-61.14,41.22-86.71,67.29-3.16,3.22-8.95.93-10.79-1.39-2.45-3.09-3.86-8.46-.72-12.11,16.13-18.67,35.12-34,55.45-48.36,64.83-45.8,142.16-70.33,221.78-68.14,21.97.6,43.35,4.22,64.26,8.94,4.67,1.06,5.81,8.37,4.86,11.53-1.41,4.66-5.82,8.12-11.74,6.75-80.2-18.55-164.18-5.51-236.38,35.49Z"/>
      <path class="cls-2" d="M684.04,329.82c-2.45,4.24-12.05,4.69-14.45.36l-24.36-44.04c-17.15-27.95-38.32-52.54-61.45-75.33-3.37-3.32-1.42-9.3.76-12.02,2.59-3.23,8.28-4.19,11.96-.91,14.23,12.66,26.24,26.44,38.76,40.91,19.93,23.03,36.91,47.79,47.96,76.21,1.77,4.54,3.69,9.87.82,14.82Z"/>
      <path class="cls-2" d="M110.53,351.11c-2.9,5.75-8.68,8.29-13.58,5.99-5.25-2.46-7.16-9.03-3.92-14.4,27.32-45.13,47.94-72.69,91.17-104.83,4.57-3.4,10.89-2.04,13.22,2.21,2.2,4.03,2.23,10.06-2.5,13.31-36.23,24.91-64.29,57.91-84.39,97.72Z"/>
      <path class="cls-2" d="M538.5,154.66c4.99,3.55,5.99,8.67,3.96,12.95-1.81,3.8-8.19,5.91-12.64,3.03-21.76-14.12-44.11-26.62-68.53-36.05-5.72-2.21-8.25-6.09-7.34-11.75.83-5.15,6.78-9.46,12.72-6.96,25.09,10.55,49.42,22.86,71.83,38.78Z"/>
      <g>
        <path class="cls-2" d="M525.82,68.66c-75.16-39.17-164.34-53.87-247.38-37.55-3.98,10.69-12.26,18.23-23.31,18.53-23.44.73-33.97-30.97-14.85-44.65,10.22-8.19,25.82-6.17,33.7,5.25,1.04,1.73,2.74,2.48,4.69,1.96,87.77-14.97,177.72-.48,256.7,39.93,4.53,2.11,4.45,9.06,2.85,12.45-2.14,4.54-7.82,6.41-12.4,4.09ZM263.03,24.61c-.47-10.75-15.52-11.33-16.82-.95-.61,12.57,16.01,13.18,16.82.95Z"/>
        <path class="cls-2" d="M581.22,153.98c-111.2-89.24-259.55-115.72-388.48-52.31-3.95,2.06-5.54,6.15-7.28,9.97-1.74,3.52-4.16,6.56-7.06,8.86-2.91,2.33-6.44,3.92-10.47,4.7-8.42,1.71-17.17-1.01-22.88-6.89-18.24-17.67.74-49.98,25.12-42.32,8.03,3.24,11.73,6.32,20.47,2.4,156.03-67.47,324.64-24.89,440.79,96.25,1.88,1.96,3.97,4.05,6.77,4.28,1.47.17,3.12-.07,4.63-.28,13.12-2.36,25.29,6.49,28.49,18.98,5.88,22.12-20.96,39.43-38.71,26.02-10.89-8.28-10.31-15.39-9.4-27.47,2.35-6.23-36.99-36.47-41.87-42.1l-.12-.11ZM162.01,92.2c-10.63,1.21-7.62,18.52,2.65,16.77,11.25-1.65,7.81-18.08-2.5-16.79l-.15.02ZM648.75,195.34c-9.33-2.81-14.8,10.72-5.44,14.6,10.28,3.49,15.35-10.31,5.62-14.54l-.18-.06Z"/>
      </g>
      <path class="cls-2" d="M236.2,859.43c-1.49,2.4-2.22,5.29-3.2,8.14-1.42,4.07-3.83,7.74-7.17,10.49-14.05,11.89-37.96,2.42-38.43-16.36-.95-11.31,7.68-22.35,18.7-24.53,2.54-.54,5.16-.63,7.74-.32,5.11.56,9.71,3.4,14.55,1.82,49.24-30.23,84.3-79.91,118.32-126.1,1.71-2.21,3.56-4.07,6.06-5.19,3.9-1.98,18.39-2.29,15.45,5.03-26.62,40.74-56.88,78.37-90.89,112.68-10.84,10.2-22.57,19.18-34.9,28.14-2.36,1.68-4.71,3.68-6.14,6.05l-.09.15ZM207.76,853.45c-8.57,5.91.45,18.35,8.83,12.52,7.73-6.59.27-17.75-8.67-12.62l-.16.1Z"/>
      <path class="cls-1" d="M389.77,524.54c-8.06,5.58-16.4,7.2-24.16,3.11-7.42-3.91-11.82-12.42-10.66-21.52.99-7.78,5.44-14.52,11.81-17.44,15.25-7,22.51,4.81,27.12,3.05l67.71-25.81c5.26-2.01,9.93.15,11.77,4.96,1.6,4.19-.54,9.52-5.72,11.51l-42.05,16.19-27.58,10.62,69.84,35.77c5.03,2.57,4.4,9.38,1.84,12.34-4.31,4.99-8.65,3.86-13.68,1.28l-66.24-34.06ZM381.01,499.62c-5.76-3.3-11.45-1.75-14.41,3.87-2.42,4.58-1.26,10.94,4.22,13.89,1.64.88,4.41,1.21,5.91,1.01,2.14-.29,5.83-1.77,7.44-4.57,1.77-3.07,2.28-6.6,1.05-9.6-.32-.77-.75-1.51-1.3-2.19-.74-.91-1.7-1.73-2.9-2.42Z"/>
      <path class="cls-2" d="M17.63,590.63c-8.43-8.66-9.96-21.03-4.25-30.12,6.12-9.74,16.58-14.85,28.26-10.95,11.04-15.12,16.55-32.31,16.6-50.8.08-32.38,3.5-76.82,14.44-106.32,1.88-5.08,7.95-6.21,12.47-4.67,4.39,1.5,7.2,7.1,5.43,12.37-10.28,30.7-13.88,61.87-13.75,94.14.1,24.05-7.41,46.19-21.44,65.86,5.35,11.59,3.6,23.31-5.64,31.19-8.72,7.44-23.54,8.1-32.12-.71ZM31.8,564.07c-5.61,1.32-6.56,6.89-5.39,11.38,1.12,4.32,5.82,6.99,10.46,5.62,4.18-1.23,6.96-6.24,5.82-10.63-1.04-4.02-5.72-7.59-10.89-6.38Z"/>
      <path class="cls-2" d="M122.58,805.44c-5.82,2.66-10.57-4.37-11.22-8.04-1.02-5.73,1.56-9.25,6.93-11.99,39.73-20.26,81.25-47.24,108.4-82.92-5.63-11.96-3.88-23.88,5.27-32.22,8.03-7.31,21.37-8.08,30.56-1.07,9.17,7,12.1,19.2,7.5,30.13s-15.83,15.75-28.06,13.78c-35.54,40.21-70.05,69.76-119.38,92.33ZM245.85,680.77c-5.43,1.23-7.68,6.16-6.05,10.87,1.31,3.79,5.49,7.19,9.99,5.36,4.02-1.63,7.75-5.08,6.43-9.9-.9-3.3-5.77-7.37-10.37-6.33Z"/>
      <g>
        <path class="cls-2" d="M451.76,880.88c10.9-14.62,21.62-27.88,30.97-43.34,22.28-36.87,40.97-74.81,57.48-114.47,2.2-5.3,7.3-7.66,12.21-6.03,5.01,1.67,7.16,6.26,6.44,12.45-24.14,56.56-54.16,110.81-90.76,160.34-3.53,4.78-7.48,5.77-12.64,3.6-3.4-1.43-7.14-7.95-3.71-12.54Z"/>
        <path class="cls-2" d="M577.43,682.67c-2.16,5.21-8.14,5.14-11.76,3.54-4.04-1.78-6.53-6.7-4.6-11.77,14.55-38,22.83-78.29,22.5-119.19-.05-6.14,3.71-9.41,9.28-9.52,5.04-.09,8.26,4.04,8.44,10.24,1.25,43.23-7.09,86.23-23.87,126.7Z"/>
        <g>
          <path class="cls-2" d="M576.75,842.08c-7.13,6.45-19.52,6.36-27.6,1.22-8.2-5.22-12.13-15.28-9.84-26.1,1.76-8.81,9.31-15.99,19.64-17.86,19.82-41.84,36.84-83.59,49.45-127.97,8.91-32.01,15.26-63.74,17.81-96.71.41-5.27,4.78-8.33,9.38-8.4,4.39-.07,8.84,4.28,8.5,9.98-4.7,78.43-34.87,156-67.8,228.02,12.01,10,12.16,27.24.46,37.82ZM559.31,815.1c-5.06,2.29-6.73,7.25-4.6,11.4,1.85,3.6,6.12,5.89,10.47,4.01,3.65-1.57,6.1-6.24,4.28-10.62-1.43-3.44-5.72-6.79-10.15-4.79Z"/>
          <path class="cls-2" d="M641.47,750.29c-2.59,5.3-6.95,7.2-12.58,5.56-4.4-1.29-7.95-8.13-4.75-13.71,16.46-28.67,28.84-59.15,34.87-92.13l4.44-24.3c-9.29-8.06-10.02-20.48-4.21-30.2,5.85-9.79,17.63-13.96,28.96-9.62,10.04,3.84,16.31,14.1,14.51,25.8-1.64,10.67-10.37,19.7-22.63,19.6-4.62,30.19-11.64,58.56-22.7,86.42l-15.92,32.59ZM677.98,615.53c3.87,1.52,8.49-2.95,8.87-6.3.49-4.4-1.57-8.03-6.56-9.6-3.9-1.22-7.84,2.85-8.52,6.69-.65,3.68,1.14,7.21,6.22,9.21Z"/>
        </g>
      </g>
      <path class="cls-2" d="M458.06,742.16c-2.92,4.02-10.02,3.35-12.49,1.31-2.69-2.22-5.39-7.4-2.59-11.19,14.76-19.96,25.01-42.53,30.08-66.32,1.04-4.91,6.66-7.1,10.24-6.4,4.69.91,8.68,5.06,7.5,10.5-5.56,25.59-16.81,50.14-32.74,72.1Z"/>
      <path class="cls-1" d="M384.92,374.89c-.13,8.83-19.39,8.89-19.47,0,0,0,0-24.34,0-24.34.02-6.81,19.34-7,19.47,0,.15,7.99.11,17,0,24.34Z"/>
      <path class="cls-1" d="M531.96,499.9c8.83.13,8.89,19.39,0,19.47,0,0-24.34,0-24.34,0-6.81-.02-7-19.34,0-19.47,7.99-.15,17-.11,24.34,0Z"/>
      <path class="cls-1" d="M241.65,499.9c8.83.13,8.89,19.39,0,19.47,0,0-24.34,0-24.34,0-6.81-.02-7-19.34,0-19.47,7.99-.15,17-.11,24.34,0Z"/>
      <path class="cls-1" d="M384.92,665.2c-.13,8.83-19.39,8.89-19.47,0,0,0,0-24.34,0-24.34.02-6.81,19.34-7,19.47,0,.15,7.99.11,17,0,24.34Z"/>
    </g>
  </g>
</svg>
