<?xml version="1.0" encoding="UTF-8"?>
<svg id="Capa_2" data-name="Capa 2" xmlns="http://www.w3.org/2000/svg" viewBox="0 0 2952 504">
  <defs>
    <style>
      .cls-1 {
        fill: #093d65;
      }

      .cls-2 {
        fill: #0c3e63;
      }

      .cls-3 {
        fill: #28a2b9;
      }
    </style>
  </defs>
  <g id="Capa_1-2" data-name="Capa 1">
    <g>
      <path class="cls-3" d="M1098.36,363.82c-10.22,9.41-21.71,16.23-34.53,20.82-3.14,1.12-5.76-.58-6.6-3.26-.97-3.09.65-5.37,3.8-6.68,23.01-9.54,41.9-21.34,48.29-47.31,5.5-22.35,2.48-49.9,7.52-73.83,3.63-17.23,10.67-33.36,21.76-46.9,21.31-26.03,52.18-41.27,85.9-42.4,21.22-.71,42.1,5.01,60.33,15.6,2.42,1.4,2.25,5.19,1.19,6.87-1.44,2.29-4.49,2.66-7.09,1.16-27.31-15.71-59.89-18.14-89.4-6.6-23.95,9.36-44.04,27.36-55.44,50.5-4.87,9.88-7.57,20.16-9.28,30.98-5.94,37.62,4.66,72.4-26.45,101.03Z"/>
      <path class="cls-3" d="M1410.49,321.56c-4.48,1.33-7.86-.54-11.63-2.06-18.3-7.37-33.1-19.67-42.95-36.82-5.31-9.24-9.79-18.47-13.81-28.4l-12.03-29.74c-5.99-14.81-14.64-27.94-26-39.21-7.4-7.34-15.89-12.64-24.55-18.21-2.51-1.61-4.38-3.72-3.8-6.47.45-2.16,3.07-5.96,5.9-4.45,12.54,6.64,23.11,15.73,32.96,25.91,11.57,11.95,19.81,25.88,25.98,41.29l14,35c10.9,27.25,27.2,46.2,55.73,54.89,2.7,2.09,2.45,5.97.2,8.28Z"/>
      <path class="cls-3" d="M1229.46,197.52c-40.2,1.94-72.22,27.34-80.68,66.72-.62,2.87-4.59,2.8-6.56,1.91-2.52-1.13-3.06-3.73-2.35-6.8,4.22-18.19,14.12-34.35,27.95-46.92,33.92-30.83,85.61-33.22,122.42-5.85,1.83,1.36,1.76,5.26.59,6.78-1.61,2.1-4.64,1.98-6.97.43-16.18-10.77-34.46-17.23-54.4-16.27Z"/>
      <path class="cls-3" d="M1240.87,495.8l7.02-9.47c23.95-30.06,43.82-62.75,58.52-98.36,4.86-11.77,8.4-23.49,11.25-35.71.66-2.81,2.92-4.46,5.36-4.01,2.19.41,4.32,2.76,3.89,5.67-2.02,13.74-6.09,26.93-11.72,39.84-16.97,38.88-39.34,75.07-65.85,108.01-2,2.49-5.19,2.76-7.32,1.42-2.31-1.46-3.01-4.89-1.15-7.4Z"/>
      <path class="cls-3" d="M1186.27,495.87c-6.25,5.08-12.01-2.22-6.51-7.66,14.97-15.9,29.91-31.79,43.11-49.26,9.96-12.79,18.73-26.35,27.02-40.25.8-1.32,1.56-2.44,2.73-3.31,1.57-1.21,3.96-1.76,6.13-2.41,1.18-.32,2.61-.75,3.73-.25.92.38.91,1.87.42,3.02-20.02,37-46.4,70.52-76.54,100.05l-.08.06Z"/>
      <path class="cls-3" d="M1122.17,467.12c-3.21,1.5-6.27-.55-6.94-2.7-1-3.2.14-5.27,3.35-6.66,31.27-13.5,57.36-35.67,76.34-63.89,1.66-2.47,4.12-3.32,6.67-2.28,1.85.76,3.78,4.36,2.33,6.81-17.62,29.66-50.44,54.03-81.74,68.72Z"/>
      <path class="cls-3" d="M1140.46,338.08c.16.64.2,1.3.06,1.94-6.36,30.88-38.12,60.78-68.17,67.28-2.4.52-4.64-.83-5.52-2.75-.8-1.74-.7-5.25,1.85-6.01,30.37-9.05,55.18-30.48,63-61.76,0-.03,0-.06.01-.09.64-4.3,6.67-4.8,8.12-.71.24.69.46,1.39.64,2.1Z"/>
      <path class="cls-3" d="M1216.78,501.97c-4.58,3.92-10.47-.48-6.99-5.86,16.53-19.5,37.43-46.16,52.8-69.08,3.98-5.93,11.56-2.22,6.97,5.49-4.83,8.12-47.79,63.9-52.72,69.4l-.07.06Z"/>
      <path class="cls-3" d="M1396.12,278.41c7.88,8.63,19.15,11.27,15.84,17.73-1.18,2.3-4.41,3.05-7.1,1.51-19.14-10.94-35.32-37.15-43.03-57.69-1.07-2.84.71-6.26,2.64-6.91,3.1-1.05,5.38.34,6.52,3.25,6.02,15.4,13.96,29.86,25.14,42.1Z"/>
      <path class="cls-3" d="M1127.58,402.17c-2.17,1.85-5.93.38-6.97-1.17-1.14-1.68-1.85-5.05.22-6.78,10.92-9.14,19.77-20.46,25.98-33.27,1.28-2.64,4.65-3.03,6.49-2.09,2.41,1.24,3.98,4.22,2.54,7.14-6.74,13.77-16.42,26.06-28.27,36.16Z"/>
      <path class="cls-3" d="M1084.84,428.9c-2.86,1.55-5.36-.63-6.19-2.69-1.13-2.8.1-5.02,2.82-6.56l20.56-11.58c2.5-1.41,5.2.09,6.53,2.19,1.03,1.63,1.04,5.2-1.41,6.53l-22.31,12.11Z"/>
      <path class="cls-3" d="M1096.16,317.05c-5.7,22.64-18.04,36.08-39.54,44.73-3.06,1.23-5.92-.49-6.71-3.21-.91-3.11.86-5.11,3.73-6.37,7.21-3.15,13.91-7.28,19.74-12.59,14.21-12.95,16.37-38.12,17.02-57.23.45-13.27,1.61-25.72,4.41-38.82,5.57-26.07,19.52-49.25,38.53-67.74,21.61-21.02,49.38-33.42,79.62-34.6,13.46-.53,26.71.31,39.75,3.61,3.45.87,4.76,3.14,4.37,6.38-.41,3.39-3.55,4.52-7.1,3.52-68.38-19.28-135.39,29.87-147.12,98.2-3.87,22.54-1.99,45.43-6.7,64.14Z"/>
      <path class="cls-3" d="M1053.12,267.45c5.78,3.51,8.55,9.43,7.08,14.98-1.58,5.95-7.1,9.97-13.03,9.65-6.24-.33-11.17-4.73-12.04-10.73-.9-6.23,2.62-11.62,8.57-14.36,3.85-39.77,18.01-79.11,43-110.11,24.92-30.91,58.67-52.54,97.04-62.04,3.57-.88,6.59-2.17,10.24-2.2,2.37-.02,3.78,2.19,4.36,4.09.49,1.61.07,5.54-2.46,6.01-18.48,3.44-35.66,10.07-52.24,19.05-54.7,29.6-83.86,84.83-90.52,145.65ZM1046.46,275.17c-2.7,1.15-3.74,3.76-2.58,6.15.8,1.65,3.25,3.1,5.67,2.08,1.63-.69,3.26-3.32,2.24-5.52-.81-1.76-2.93-3.73-5.32-2.7Z"/>
      <path class="cls-3" d="M1409.81,259.01c1.45,2.62.77,5.35-1.12,6.98-1.68,1.45-5.29,1.53-6.83-.72-9.29-13.54-16.4-27.75-22.85-42.85-4.77-11.18-9.13-22.02-14.78-32.77-11.4-21.69-28.11-39.53-47.69-54-27.85-20.58-60.42-32.41-95.03-33.87-3.42-.14-5.93-1.83-5.88-4.78.05-3.2,1.77-5.42,5.36-5.32,29.12.82,57.1,9.28,82.35,23.81,22.48,12.94,42.37,29.76,57.59,50.83,9.34,12.93,16.52,26.84,22.58,41.55,4.95,12.02,10.19,23.14,16.92,34.24l9.38,16.9Z"/>
      <path class="cls-3" d="M1350.53,214.7c-21.38-50.32-68.74-84.05-123.36-87.82-22.05-1.52-43.91,3.63-63.96,12.74-2.51,1.14-5.65-.03-6.88-1.75-1.08-1.51-1.05-5.56,1.38-6.79,54.8-27.76,119.13-13.41,164.28,26.45,16.23,14.33,28.24,32.25,37.04,51.94,1.26,2.83,1.86,5.5-.88,7.38-1.96,1.34-6.26,1.04-7.62-2.16Z"/>
      <path class="cls-3" d="M1129.74,101.94c-17.34,9.85-32.79,22.11-46.5,36.09-1.69,1.73-4.8.5-5.79-.75-1.31-1.66-2.07-4.54-.38-6.49,8.65-10.01,18.84-18.23,29.74-25.94,34.77-24.56,76.24-37.72,118.94-36.55,11.78.32,23.25,2.26,34.46,4.8,2.51.57,3.12,4.49,2.6,6.18-.76,2.5-3.12,4.35-6.3,3.62-43.01-9.95-88.05-2.95-126.77,19.03Z"/>
      <path class="cls-3" d="M1401.85,194.88c-1.32,2.27-6.46,2.52-7.75.19l-13.07-23.62c-9.2-14.99-20.55-28.17-32.95-40.4-1.81-1.78-.76-4.99.41-6.45,1.39-1.73,4.44-2.25,6.41-.49,7.63,6.79,14.07,14.18,20.78,21.94,10.69,12.35,19.79,25.63,25.72,40.87.95,2.43,1.98,5.3.44,7.95Z"/>
      <path class="cls-3" d="M1094.28,206.3c-1.56,3.08-4.65,4.44-7.28,3.21-2.82-1.32-3.84-4.84-2.1-7.72,14.65-24.2,25.71-38.98,48.89-56.22,2.45-1.82,5.84-1.1,7.09,1.19,1.18,2.16,1.2,5.4-1.34,7.14-19.43,13.36-34.48,31.06-45.26,52.41Z"/>
      <path class="cls-3" d="M1323.8,100.94c2.68,1.9,3.21,4.65,2.12,6.94-.97,2.04-4.39,3.17-6.78,1.62-11.67-7.57-23.66-14.28-36.75-19.33-3.07-1.18-4.43-3.26-3.94-6.3.44-2.76,3.64-5.07,6.82-3.73,13.46,5.66,26.5,12.26,38.52,20.8Z"/>
      <g>
        <path class="cls-3" d="M1317,54.82c-40.31-21.01-88.14-28.89-132.67-20.14-2.14,5.73-6.57,9.78-12.5,9.94-12.57.39-18.22-16.61-7.96-23.95,5.48-4.39,13.85-3.31,18.07,2.82.56.93,1.47,1.33,2.51,1.05,47.07-8.03,95.31-.26,137.67,21.41,2.43,1.13,2.38,4.86,1.53,6.68-1.15,2.44-4.2,3.44-6.65,2.19ZM1176.07,31.2c-.25-5.76-8.32-6.08-9.02-.51-.33,6.74,8.58,7.07,9.02.51Z"/>
        <path class="cls-3" d="M1346.71,100.58c-59.63-47.86-139.19-62.06-208.35-28.05-2.12,1.11-2.97,3.3-3.9,5.35-.93,1.89-2.23,3.52-3.78,4.75-1.56,1.25-3.45,2.1-5.62,2.52-4.52.92-9.21-.54-12.27-3.69-9.78-9.47.4-26.81,13.47-22.7,4.31,1.74,6.29,3.39,10.98,1.29,83.68-36.18,174.11-13.35,236.4,51.62,1.01,1.05,2.13,2.17,3.63,2.3.79.09,1.67-.04,2.48-.15,7.04-1.27,13.56,3.48,15.28,10.18,3.15,11.86-11.24,21.14-20.76,13.96-5.84-4.44-5.53-8.25-5.04-14.73,1.26-3.34-19.84-19.56-22.45-22.58l-.07-.06ZM1121.88,67.45c-5.7.65-4.09,9.93,1.42,8.99,6.03-.88,4.19-9.7-1.34-9h-.08ZM1382.93,122.76c-5-1.51-7.94,5.75-2.92,7.83,5.51,1.87,8.23-5.53,3.02-7.8l-.1-.03Z"/>
      </g>
      <path class="cls-3" d="M1161.67,478.91c-.8,1.29-1.19,2.84-1.72,4.37-.76,2.18-2.06,4.15-3.84,5.63-7.54,6.38-20.36,1.3-20.61-8.77-.51-6.07,4.12-11.99,10.03-13.15,1.36-.29,2.77-.34,4.15-.17,2.74.3,5.21,1.82,7.8.98,26.41-16.21,45.21-42.85,63.46-67.63.92-1.19,1.91-2.18,3.25-2.79,2.09-1.06,9.86-1.23,8.29,2.7-14.28,21.85-30.51,42.03-48.74,60.43-5.82,5.47-12.1,10.29-18.72,15.09-1.27.9-2.53,1.97-3.29,3.24l-.05.08ZM1146.42,475.71c-4.6,3.17.24,9.84,4.74,6.71,4.15-3.54.14-9.52-4.65-6.77l-.09.05Z"/>
      <path class="cls-1" d="M1244.03,299.31c-4.32,2.99-8.79,3.86-12.96,1.67-3.98-2.09-6.34-6.66-5.72-11.54.53-4.17,2.92-7.79,6.33-9.35,8.18-3.76,12.07,2.58,14.54,1.64l36.31-13.84c2.82-1.08,5.33.08,6.31,2.66.86,2.24-.29,5.1-3.07,6.17l-22.55,8.68-14.79,5.7,37.46,19.18c2.7,1.38,2.36,5.03.99,6.62-2.31,2.68-4.64,2.07-7.34.68l-35.53-18.27ZM1239.34,285.95c-3.09-1.77-6.14-.94-7.73,2.08-1.3,2.46-.68,5.87,2.26,7.45.88.47,2.37.65,3.17.54,1.15-.15,3.13-.95,3.99-2.45.95-1.65,1.22-3.54.56-5.15-.17-.41-.4-.81-.7-1.17-.4-.49-.91-.93-1.56-1.3Z"/>
      <path class="cls-3" d="M1044.46,334.75c-4.52-4.64-5.34-11.28-2.28-16.15,3.28-5.22,8.89-7.96,15.16-5.87,5.92-8.11,8.88-17.33,8.9-27.24.04-17.36,1.88-41.2,7.74-57.02,1.01-2.72,4.27-3.33,6.69-2.5,2.35.81,3.86,3.81,2.91,6.63-5.51,16.47-7.44,33.18-7.37,50.49.05,12.9-3.97,24.77-11.5,35.32,2.87,6.22,1.93,12.5-3.02,16.73-4.68,3.99-12.63,4.35-17.23-.38ZM1052.06,320.51c-3.01.71-3.52,3.69-2.89,6.11s3.12,3.75,5.61,3.02c2.24-.66,3.73-3.35,3.12-5.7-.56-2.16-3.07-4.07-5.84-3.42Z"/>
      <path class="cls-3" d="M1100.74,449.96c-3.12,1.43-5.67-2.35-6.02-4.31-.55-3.07.84-4.96,3.72-6.43,21.31-10.87,43.57-25.33,58.13-44.47-3.02-6.41-2.08-12.81,2.83-17.28,4.31-3.92,11.46-4.33,16.39-.57,4.92,3.75,6.49,10.29,4.02,16.16-2.4,5.7-8.49,8.45-15.05,7.39-19.06,21.57-37.57,37.41-64.02,49.52ZM1166.85,383.1c-2.91.66-4.12,3.31-3.25,5.83.7,2.03,2.94,3.86,5.36,2.87,2.16-.88,4.16-2.72,3.45-5.31-.48-1.77-3.1-3.95-5.56-3.39Z"/>
      <g>
        <path class="cls-3" d="M1277.28,490.42c5.85-7.84,11.6-14.95,16.61-23.25,11.95-19.77,21.97-40.12,30.83-61.39,1.18-2.84,3.92-4.11,6.55-3.23,2.69.89,3.84,3.36,3.46,6.68-12.95,30.33-29.05,59.43-48.67,85.99-1.89,2.56-4.01,3.09-6.78,1.93-1.83-.77-3.83-4.26-1.99-6.73Z"/>
        <path class="cls-3" d="M1344.68,384.12c-1.16,2.79-4.37,2.75-6.31,1.9-2.17-.96-3.5-3.6-2.47-6.31,7.8-20.38,12.24-41.99,12.06-63.92-.03-3.29,1.99-5.05,4.98-5.1,2.7-.05,4.43,2.17,4.53,5.49.67,23.19-3.8,46.25-12.8,67.95Z"/>
        <g>
          <path class="cls-3" d="M1344.31,469.61c-3.82,3.46-10.47,3.41-14.8.65-4.4-2.8-6.51-8.19-5.28-14,.94-4.72,4.99-8.57,10.53-9.58,10.63-22.44,19.76-44.83,26.52-68.63,4.78-17.16,8.18-34.19,9.55-51.87.22-2.83,2.56-4.47,5.03-4.5s4.74,2.3,4.56,5.35c-2.52,42.06-18.7,83.66-36.36,122.29,6.44,5.36,6.52,14.61.25,20.28ZM1334.96,455.14c-2.72,1.23-3.61,3.89-2.47,6.11.99,1.93,3.28,3.16,5.61,2.15,1.96-.84,3.27-3.35,2.3-5.7-.77-1.85-3.07-3.64-5.44-2.57Z"/>
          <path class="cls-3" d="M1379.02,420.38c-1.39,2.84-3.72,3.86-6.75,2.98-2.36-.69-4.26-4.36-2.55-7.35,8.83-15.38,15.47-31.72,18.7-49.41l2.38-13.03c-4.98-4.32-5.37-10.98-2.26-16.2,3.14-5.25,9.45-7.49,15.53-5.16,5.39,2.06,8.75,7.56,7.78,13.84-.88,5.72-5.56,10.56-12.14,10.51-2.48,16.19-6.24,31.4-12.17,46.35l-8.54,17.48ZM1398.6,348.11c2.07.81,4.55-1.58,4.75-3.38.26-2.36-.84-4.31-3.52-5.15-2.09-.65-4.2,1.53-4.57,3.59-.35,1.98.61,3.87,3.33,4.94Z"/>
        </g>
      </g>
      <path class="cls-3" d="M1280.66,416.02c-1.56,2.16-5.37,1.8-6.7.7-1.44-1.19-2.89-3.97-1.39-6,7.91-10.71,13.42-22.81,16.13-35.57.56-2.63,3.57-3.81,5.49-3.43,2.52.49,4.65,2.71,4.02,5.63-2.98,13.73-9.02,26.89-17.56,38.67Z"/>
      <path class="cls-1" d="M1241.43,219.06c-.07,4.74-10.4,4.77-10.44,0,0,0,0-13.06,0-13.06.01-3.65,10.37-3.75,10.44,0,.08,4.28.06,9.12,0,13.06Z"/>
      <path class="cls-1" d="M1320.29,286.1c4.74.07,4.77,10.4,0,10.44,0,0-13.06,0-13.06,0-3.65-.01-3.75-10.37,0-10.44,4.28-.08,9.12-.06,13.06,0Z"/>
      <path class="cls-1" d="M1164.6,286.1c4.74.07,4.77,10.4,0,10.44,0,0-13.06,0-13.06,0-3.65-.01-3.75-10.37,0-10.44,4.28-.08,9.12-.06,13.06,0Z"/>
      <path class="cls-1" d="M1241.43,374.75c-.07,4.74-10.4,4.77-10.44,0,0,0,0-13.06,0-13.06.01-3.65,10.37-3.75,10.44,0,.08,4.28.06,9.12,0,13.06Z"/>
    </g>
    <path class="cls-2" d="M759.9,243.83c38.52,57.19,175.95,260.17,175.95,260.17l-87.77-.02c-42.22-60.64-102.53-149.65-143.92-210.28-5.72-6.72-12.35-6.42-21.3-6.42h-107.32v216.72l-71.54-.24.09-503.46L575.54,0v210.67h107.32c10.9,0,17.35-6.98,24.11-15.22C749.07,135.67,801.13,59.89,843.26,0l88.4.21c-53.32,77.8-116.75,167.33-171.76,243.61Z"/>
    <path class="cls-2" d="M1935,459c0,27-27,45-45,45-4.5,0-13.32,0-25.88-9.22-5.38-3.95-10.09-8.75-14.1-14.09-29.3-39.01-211.54-281.7-256.38-341.79-2.58-3.45-10.74.29-10.74,4.66v329.69c0,16.74-13.57,30.31-30.31,30.31h-11.67c-16.58,0-30.01-13.44-30-30.02l.24-426.88c.28-26.97,18.85-46.67,45.85-46.67,13.22,0,28.47,5.33,36.33,17.13,82.14,107.59,179.41,243.64,266.09,353.87,12.58,16,12.58-3.9,12.58-9.01V21.35c0-11.79,9.56-21.35,21.35-21.35h20.3c11.79,0,21.35,9.56,21.35,21.35v437.65Z"/>
    <path class="cls-2" d="M2421,504h-261c-90,0-144-45-144-144v-216c0-117,63-144,144-144h288s-18,54-27,72h-261c-72,0-72,45-72,72v72c21.75.51,324,0,324,0l-27,72h-297v72c0,36,0,72,72,72h288l-27,72Z"/>
    <path class="cls-2" d="M2772,504h-75.42l-.24-432h-167.34c-9,0-9-9-6.62-13.17l33.62-58.83h396l-14.87,59.47c-1.84,7.36-8.46,12.53-16.05,12.53h-149.08v432Z"/>
    <path class="cls-2" d="M72.01,326.67v168c0,9.33-4.51,9.34-9,9.33H9.01C.85,503.99,0,503.26,0,494.67v-177.33c.02-23.4,14.72-52.58,33.98-65.77,8.61-5.89,18.75-8.9,29.06-8.88,41.39.08,210.95-.02,215.96-.02,72,0,89.95-170.67-9.05-170.67H8.95c-5,0-9.97-1.55-8.77-6.67C6.63,44.71,14.39,1.35,39.32.01c.16,0,.32-.01.49-.01C48.2.01,270.01,0,270.01,0,473.68,0,468.09,304.95,288,314.76c-2.94.16-5.93.24-8.97.24-3.26,0-30.1,0-63.03,0-58.04,0-134.97,0-134.97,0-4.26,0-9.02,2.33-9.02,11.67Z"/>
    <path class="cls-2" d="M189,288c18,18,153,216,153,216h81.01s-135.01-198-135.01-198"/>
  </g>
</svg>